<svg xmlns="http://www.w3.org/2000/svg" width="44" height="43" viewBox="0 0 44 43" fill="none">
<g clip-path="url(#clip0_1_1200)">
<path fill-rule="evenodd" clip-rule="evenodd" d="M31.6423 16.7427C31.5642 16.7427 31.4861 16.7222 31.4162 16.6821C31.2763 16.6011 31.1901 16.4517 31.1901 16.2897L31.1901 9.24053C31.1901 8.99044 31.3925 8.7876 31.6423 8.7876C31.892 8.78757 32.0944 8.99049 32.0944 9.24056L32.0945 15.5049L37.3682 12.4553C37.5841 12.3302 37.8605 12.4042 37.9861 12.6212C38.1109 12.8374 38.0363 13.1151 37.8204 13.2401L31.8684 16.6821C31.7984 16.7222 31.7203 16.7427 31.6423 16.7427Z" fill="black"/>
<path fill-rule="evenodd" clip-rule="evenodd" d="M22.5732 38.9582C22.3235 38.9582 22.1211 38.7553 22.1211 38.5053V25.7171H20.567V38.5053C20.567 38.7553 20.3646 38.9582 20.1148 38.9582C19.8651 38.9582 19.6627 38.7554 19.6627 38.5053L19.6627 25.2641C19.6627 25.014 19.8651 24.8112 20.1148 24.8112L22.5732 24.8112C22.823 24.8112 23.0253 25.0141 23.0253 25.2641L23.0254 38.5052C23.0254 38.7553 22.8229 38.9582 22.5732 38.9582Z" fill="black"/>
<path fill-rule="evenodd" clip-rule="evenodd" d="M18.4219 38.958C18.172 38.958 17.9697 38.7552 17.9697 38.5051L17.9697 28.0934H16.4157V38.5051C16.4157 38.7551 16.2133 38.9581 15.9635 38.9581C15.7137 38.9581 15.5114 38.7552 15.5114 38.5051V27.6404C15.5114 27.3903 15.7137 27.1883 15.9635 27.1883L18.4219 27.1882C18.6716 27.1882 18.874 27.3904 18.874 27.6404V38.5051C18.874 38.7551 18.6716 38.9581 18.4219 38.958Z" fill="black"/>
<path fill-rule="evenodd" clip-rule="evenodd" d="M14.2704 38.9581C14.0206 38.9581 13.8182 38.7553 13.8182 38.5052V31.6439H12.2642V38.5052C12.2642 38.7552 12.0618 38.9582 11.8121 38.9582C11.5623 38.9581 11.3599 38.7553 11.3599 38.5052V31.191C11.3599 30.9402 11.5623 30.7381 11.8121 30.7381L14.2704 30.738C14.5201 30.738 14.7224 30.9402 14.7224 31.191L14.7225 38.5052C14.7225 38.7552 14.5201 38.9581 14.2704 38.9581Z" fill="black"/>
<path fill-rule="evenodd" clip-rule="evenodd" d="M10.1191 38.9582C9.86939 38.9582 9.6669 38.7553 9.6669 38.5052L9.66692 34.0338H8.11294V38.5052C8.11294 38.7552 7.91045 38.9582 7.6607 38.9582C7.41104 38.9582 7.20862 38.7553 7.20862 38.5052V33.5809C7.20862 33.3308 7.41099 33.128 7.6607 33.128L10.1191 33.1279C10.3688 33.1279 10.5713 33.3308 10.5713 33.5809L10.5713 38.5052C10.5713 38.7552 10.3688 38.9582 10.1191 38.9582Z" fill="black"/>
<path fill-rule="evenodd" clip-rule="evenodd" d="M24.395 38.9581H5.83889C5.5892 38.9581 5.38678 38.7553 5.38678 38.5052L5.38681 24.2032C5.38681 23.9531 5.58915 23.7502 5.83887 23.7502C6.08861 23.7502 6.29115 23.9531 6.29115 24.2032L6.29118 38.0522H24.395C24.6447 38.0522 24.8472 38.2544 24.8472 38.5052C24.8472 38.7552 24.6447 38.9582 24.395 38.9581Z" fill="black"/>
<path fill-rule="evenodd" clip-rule="evenodd" d="M31.9592 9.68575C28.7889 9.68575 26.2097 12.2698 26.2097 15.4453C26.2097 18.6214 28.7889 21.2048 31.9592 21.2048C35.1294 21.2047 37.7091 18.6215 37.7091 15.4453C37.7091 12.2698 35.1294 9.68577 31.9592 9.68575ZM31.9592 22.1106C28.2903 22.1106 25.3054 19.1208 25.3054 15.4453C25.3054 11.7704 28.2902 8.78064 31.9592 8.78064C35.6279 8.78064 38.6135 11.7705 38.6135 15.4453C38.6135 19.1208 35.628 22.1107 31.9592 22.1106Z" fill="black"/>
<path fill-rule="evenodd" clip-rule="evenodd" d="M15.1397 13.1144C15.024 13.1144 14.9083 13.0704 14.82 12.9823L12.4679 10.6255C12.2913 10.4485 12.2913 10.1623 12.4679 9.98541C12.6444 9.80839 12.9308 9.80845 13.1074 9.98541L15.4595 12.3414C15.6361 12.5183 15.6361 12.8054 15.4594 12.9823C15.3712 13.0704 15.2554 13.1144 15.1397 13.1144ZM16.9863 13.1144C16.8706 13.1144 16.7549 13.0704 16.6665 12.9823C16.49 12.8053 16.49 12.5183 16.6665 12.3414L21.3769 7.62303C21.5535 7.4461 21.8398 7.44615 22.0163 7.62309C22.193 7.79997 22.193 8.08705 22.0163 8.26323L17.3061 12.9823C17.2177 13.0704 17.102 13.1144 16.9863 13.1144ZM8.11699 16.6924C8.04028 16.6924 7.96253 16.6728 7.89135 16.6311C7.6751 16.506 7.60095 16.2293 7.72578 16.013L11.0173 10.3023C11.1421 10.0852 11.4186 10.0113 11.6349 10.1364C11.8512 10.2614 11.9253 10.5382 11.8004 10.7553L8.50901 16.466C8.42525 16.6106 8.27327 16.6925 8.11699 16.6924Z" fill="black"/>
<path fill-rule="evenodd" clip-rule="evenodd" d="M7.60464 16.702C7.13398 16.702 6.75112 17.0849 6.75112 17.5567C6.75114 18.0278 7.13398 18.4115 7.60461 18.4115C8.07527 18.4115 8.45818 18.0278 8.45818 17.5567C8.45824 17.0849 8.07525 16.702 7.60464 16.702ZM7.60464 19.3175C6.63535 19.3175 5.84674 18.5271 5.84674 17.5567C5.84677 16.5855 6.6353 15.796 7.60461 15.796C8.57392 15.796 9.36251 16.5856 9.36251 17.5567C9.36251 18.5271 8.5739 19.3175 7.60464 19.3175Z" fill="black"/>
<path fill-rule="evenodd" clip-rule="evenodd" d="M11.9227 8.47067C11.4522 8.47067 11.0692 8.85448 11.0692 9.32554C11.0692 9.79733 11.4521 10.1811 11.9227 10.1811C12.3933 10.1811 12.7762 9.79738 12.7762 9.32554C12.7763 8.85443 12.3933 8.47074 11.9227 8.47067ZM11.9227 11.087C10.9535 11.087 10.1649 10.2967 10.1649 9.32554C10.1649 8.35511 10.9535 7.56482 11.9227 7.56482C12.892 7.56474 13.6806 8.35513 13.6806 9.32554C13.6806 10.2966 12.892 11.087 11.9227 11.087Z" fill="black"/>
<path fill-rule="evenodd" clip-rule="evenodd" d="M16.0631 12.7314C15.5925 12.7314 15.2096 13.1151 15.2096 13.5862C15.2096 14.058 15.5925 14.4418 16.0631 14.4418C16.5337 14.4417 16.9166 14.058 16.9166 13.5862C16.9166 13.1151 16.5337 12.7314 16.0631 12.7314ZM16.0631 15.3469C15.0938 15.3469 14.3053 14.5574 14.3053 13.5862C14.3053 12.6157 15.0938 11.8254 16.0631 11.8254C17.0324 11.8254 17.821 12.6157 17.821 13.5862C17.821 14.5573 17.0324 15.3469 16.0631 15.3469Z" fill="black"/>
<path fill-rule="evenodd" clip-rule="evenodd" d="M22.6293 6.02342C22.1587 6.02342 21.7758 6.40646 21.7758 6.87828C21.7758 7.34931 22.1586 7.73308 22.6293 7.73308C23.0998 7.73308 23.4828 7.34934 23.4828 6.87828C23.4828 6.40641 23.0998 6.02348 22.6293 6.02342ZM22.6293 8.63899C21.66 8.63899 20.8714 7.84947 20.8714 6.87827C20.8714 5.90708 21.66 5.11755 22.6293 5.11755C23.5985 5.1175 24.3871 5.90708 24.3871 6.87827C24.3871 7.84941 23.5985 8.63899 22.6293 8.63899Z" fill="black"/>
<path fill-rule="evenodd" clip-rule="evenodd" d="M3.15776 40.9114H40.8421V3.16337H3.15776V40.9114ZM41.2943 41.8174H2.70568C2.45596 41.8174 2.25342 41.6145 2.25342 41.3644V2.7104C2.25342 2.46039 2.45596 2.25752 2.70566 2.25752L41.2943 2.25745C41.5439 2.25745 41.7465 2.46041 41.7465 2.71048L41.7465 41.3644C41.7465 41.6145 41.5439 41.8174 41.2943 41.8174Z" fill="black"/>
</g>
<defs>
<clipPath id="clip0_1_1200">
<rect width="44" height="43" fill="white"/>
</clipPath>
</defs>
</svg>