<svg xmlns="http://www.w3.org/2000/svg" width="35" height="36" viewBox="0 0 35 36" fill="none">
<path d="M11.0541 25.9407C11.4262 25.8668 11.812 25.9049 12.1625 26.0501C12.5129 26.1954 12.813 26.4407 13.0238 26.7562C13.2346 27.0717 13.347 27.4431 13.347 27.8226C13.3464 28.3312 13.1432 28.8184 12.7836 29.178C12.4239 29.5377 11.9367 29.7408 11.4281 29.7415C11.0486 29.7415 10.6772 29.6291 10.3617 29.4183C10.0463 29.2075 9.80089 28.9074 9.65564 28.5569C9.51046 28.2065 9.47234 27.8206 9.54626 27.4485C9.6203 27.0763 9.80233 26.7335 10.0707 26.4651C10.339 26.1968 10.6819 26.0148 11.0541 25.9407ZM11.642 26.7474C11.4293 26.7051 11.2085 26.7269 11.0082 26.8099C10.808 26.8929 10.6364 27.033 10.516 27.2132C10.3956 27.3935 10.3314 27.6057 10.3314 27.8226C10.3315 28.1133 10.4471 28.3924 10.6527 28.598C10.8583 28.8035 11.1374 28.9193 11.4281 28.9193C11.6449 28.9192 11.8572 28.8542 12.0375 28.7337C12.2174 28.6133 12.3579 28.4425 12.4408 28.2425C12.5238 28.0422 12.5456 27.8213 12.5033 27.6087C12.461 27.3961 12.3567 27.2005 12.2035 27.0472C12.0502 26.8939 11.8546 26.7897 11.642 26.7474Z" fill="black"/>
<path d="M11.0541 25.9407C11.4262 25.8668 11.812 25.9049 12.1625 26.0501C12.5129 26.1954 12.813 26.4407 13.0238 26.7562C13.2346 27.0717 13.347 27.4431 13.347 27.8226C13.3464 28.3312 13.1432 28.8184 12.7836 29.178C12.4239 29.5377 11.9367 29.7408 11.4281 29.7415C11.0486 29.7415 10.6772 29.6291 10.3617 29.4183C10.0463 29.2075 9.80089 28.9074 9.65564 28.5569C9.51046 28.2065 9.47234 27.8206 9.54626 27.4485C9.6203 27.0763 9.80233 26.7335 10.0707 26.4651C10.339 26.1968 10.6819 26.0148 11.0541 25.9407ZM11.642 26.7474C11.4293 26.7051 11.2085 26.7269 11.0082 26.8099C10.808 26.8929 10.6364 27.033 10.516 27.2132C10.3956 27.3935 10.3314 27.6057 10.3314 27.8226C10.3315 28.1133 10.4471 28.3924 10.6527 28.598C10.8583 28.8035 11.1374 28.9193 11.4281 28.9193C11.6449 28.9192 11.8572 28.8542 12.0375 28.7337C12.2174 28.6133 12.3579 28.4425 12.4408 28.2425C12.5238 28.0422 12.5456 27.8213 12.5033 27.6087C12.461 27.3961 12.3567 27.2005 12.2035 27.0472C12.0502 26.8939 11.8546 26.7897 11.642 26.7474Z" stroke="black"/>
<path d="M3.55688 29.0142C4.57116 28.7326 5.65057 28.7909 6.62817 29.1812C7.60567 29.5715 8.42854 30.2717 8.96997 31.1743C9.49907 30.6973 10.155 30.3836 10.8586 30.272C11.5624 30.1604 12.284 30.2553 12.9348 30.5454C13.5858 30.8356 14.1391 31.3086 14.5266 31.9067C14.9141 32.5049 15.1197 33.2028 15.1184 33.9155C15.1184 34.0283 15.1125 34.14 15.1018 34.2495C15.0802 34.4788 14.9736 34.6924 14.803 34.8472C14.6324 35.0018 14.4101 35.0871 14.1799 35.0864H8.67798C8.65361 35.0859 8.62892 35.0836 8.60474 35.0806C8.585 35.0817 8.56545 35.0864 8.54517 35.0864H1.15454C0.880189 35.0876 0.614677 34.9855 0.411377 34.8013C0.208335 34.6171 0.081687 34.3633 0.0559082 34.0903C0.041684 33.946 0.0344294 33.7993 0.0344238 33.6548H0.0334473C0.0321933 32.6023 0.376503 31.578 1.01294 30.7397C1.64932 29.9017 2.54298 29.2957 3.55688 29.0142ZM11.429 31.0483C11.039 31.0483 10.6529 31.1285 10.2952 31.2837C9.93732 31.439 9.61432 31.6658 9.3479 31.9507C9.55651 32.4948 9.66423 33.073 9.66528 33.6558C9.66527 33.8004 9.65804 33.9474 9.6438 34.0923C9.63738 34.1503 9.62703 34.2079 9.61157 34.2642H14.1799C14.2055 34.264 14.2302 34.2539 14.2493 34.2368C14.2683 34.2196 14.2807 34.1959 14.2834 34.1704C14.2914 34.0867 14.2961 34.0015 14.2961 33.9155C14.2953 33.1554 13.9927 32.4267 13.4553 31.8892C12.9179 31.3517 12.189 31.0492 11.429 31.0483ZM4.84985 29.6616C3.79123 29.6628 2.7762 30.084 2.02759 30.8325C1.27922 31.5809 0.858064 32.5954 0.856689 33.6538C0.856689 33.7716 0.862491 33.8919 0.874268 34.0103C0.880901 34.0797 0.913357 34.1441 0.965088 34.1909C1.01694 34.2377 1.08468 34.2636 1.15454 34.2632H8.54517C8.61489 34.2636 8.6828 34.2385 8.73462 34.1919C8.78638 34.1452 8.81861 34.0806 8.82544 34.0112C8.83722 33.8929 8.84301 33.7726 8.84302 33.6548C8.84186 32.5961 8.42071 31.5811 7.67212 30.8325C6.92349 30.0839 5.90858 29.6628 4.84985 29.6616Z" fill="black"/>
<path d="M3.55688 29.0142C4.57116 28.7326 5.65057 28.7909 6.62817 29.1812C7.60567 29.5715 8.42854 30.2717 8.96997 31.1743C9.49907 30.6973 10.155 30.3836 10.8586 30.272C11.5624 30.1604 12.284 30.2553 12.9348 30.5454C13.5858 30.8356 14.1391 31.3086 14.5266 31.9067C14.9141 32.5049 15.1197 33.2028 15.1184 33.9155C15.1184 34.0283 15.1125 34.14 15.1018 34.2495C15.0802 34.4788 14.9736 34.6924 14.803 34.8472C14.6324 35.0018 14.4101 35.0871 14.1799 35.0864H8.67798C8.65361 35.0859 8.62892 35.0836 8.60474 35.0806C8.585 35.0817 8.56545 35.0864 8.54517 35.0864H1.15454C0.880189 35.0876 0.614677 34.9855 0.411377 34.8013C0.208335 34.6171 0.081687 34.3633 0.0559082 34.0903C0.041684 33.946 0.0344294 33.7993 0.0344238 33.6548H0.0334473C0.0321933 32.6023 0.376503 31.578 1.01294 30.7397C1.64932 29.9017 2.54298 29.2957 3.55688 29.0142ZM11.429 31.0483C11.039 31.0483 10.6529 31.1285 10.2952 31.2837C9.93732 31.439 9.61432 31.6658 9.3479 31.9507C9.55651 32.4948 9.66423 33.073 9.66528 33.6558C9.66527 33.8004 9.65804 33.9474 9.6438 34.0923C9.63738 34.1503 9.62703 34.2079 9.61157 34.2642H14.1799C14.2055 34.264 14.2302 34.2539 14.2493 34.2368C14.2683 34.2196 14.2807 34.1959 14.2834 34.1704C14.2914 34.0867 14.2961 34.0015 14.2961 33.9155C14.2953 33.1554 13.9927 32.4267 13.4553 31.8892C12.9179 31.3517 12.189 31.0492 11.429 31.0483ZM4.84985 29.6616C3.79123 29.6628 2.7762 30.084 2.02759 30.8325C1.27922 31.5809 0.858064 32.5954 0.856689 33.6538C0.856689 33.7716 0.862491 33.8919 0.874268 34.0103C0.880901 34.0797 0.913357 34.1441 0.965088 34.1909C1.01694 34.2377 1.08468 34.2636 1.15454 34.2632H8.54517C8.61489 34.2636 8.6828 34.2385 8.73462 34.1919C8.78638 34.1452 8.81861 34.0806 8.82544 34.0112C8.83722 33.8929 8.84301 33.7726 8.84302 33.6548C8.84186 32.5961 8.42071 31.5811 7.67212 30.8325C6.92349 30.0839 5.90858 29.6628 4.84985 29.6616Z" stroke="black"/>
<path d="M4.36755 23.3474C4.84608 23.2522 5.34257 23.3004 5.79333 23.4871C6.24412 23.6738 6.62968 23.9905 6.90076 24.3962C7.17166 24.8018 7.31575 25.2786 7.3158 25.7664C7.31507 26.4204 7.05564 27.048 6.59314 27.5105C6.13064 27.973 5.50307 28.2324 4.849 28.2332C4.36127 28.2331 3.88445 28.089 3.47888 27.8181C3.07318 27.547 2.75642 27.1615 2.5697 26.7107C2.383 26.2599 2.33487 25.7634 2.43005 25.2849C2.5253 24.8065 2.75995 24.3671 3.10486 24.0222C3.44977 23.6773 3.88917 23.4427 4.36755 23.3474ZM5.17029 24.1531C4.85137 24.0896 4.52053 24.1225 4.22009 24.2468C3.91957 24.3713 3.66253 24.5828 3.48181 24.8533C3.30124 25.1236 3.20451 25.4412 3.20447 25.7664C3.2049 26.2024 3.37855 26.6211 3.68689 26.9294C3.99515 27.2376 4.41314 27.4104 4.849 27.4109C5.17423 27.4109 5.49262 27.3152 5.76306 27.1345C6.03344 26.9539 6.24403 26.6966 6.36853 26.3962C6.49297 26.0958 6.52566 25.765 6.46228 25.446C6.39882 25.127 6.2421 24.8333 6.01208 24.6033C5.78214 24.3734 5.48918 24.2165 5.17029 24.1531Z" fill="black"/>
<path d="M4.36755 23.3474C4.84608 23.2522 5.34257 23.3004 5.79333 23.4871C6.24412 23.6738 6.62968 23.9905 6.90076 24.3962C7.17166 24.8018 7.31575 25.2786 7.3158 25.7664C7.31507 26.4204 7.05564 27.048 6.59314 27.5105C6.13064 27.973 5.50307 28.2324 4.849 28.2332C4.36127 28.2331 3.88445 28.089 3.47888 27.8181C3.07318 27.547 2.75642 27.1615 2.5697 26.7107C2.383 26.2599 2.33487 25.7634 2.43005 25.2849C2.5253 24.8065 2.75995 24.3671 3.10486 24.0222C3.44977 23.6773 3.88917 23.4427 4.36755 23.3474ZM5.17029 24.1531C4.85137 24.0896 4.52053 24.1225 4.22009 24.2468C3.91957 24.3713 3.66253 24.5828 3.48181 24.8533C3.30124 25.1236 3.20451 25.4412 3.20447 25.7664C3.2049 26.2024 3.37855 26.6211 3.68689 26.9294C3.99515 27.2376 4.41314 27.4104 4.849 27.4109C5.17423 27.4109 5.49262 27.3152 5.76306 27.1345C6.03344 26.9539 6.24403 26.6966 6.36853 26.3962C6.49297 26.0958 6.52566 25.765 6.46228 25.446C6.39882 25.127 6.2421 24.8333 6.01208 24.6033C5.78214 24.3734 5.48918 24.2165 5.17029 24.1531Z" stroke="black"/>
<path d="M21.0225 0C23.7978 -0.00130488 26.511 0.824423 28.8154 2.37109C31.1196 3.91779 32.9108 6.11573 33.9609 8.68457C35.0111 11.2535 35.2729 14.0769 34.7119 16.7949C34.1509 19.513 32.7931 22.0031 30.8115 23.9463L34.4023 30.1641C34.8145 30.9011 34.9194 31.7708 34.6953 32.585C34.4713 33.3991 33.9362 34.0923 33.2051 34.5146C32.4738 34.937 31.6053 35.0546 30.7881 34.8418C29.9708 34.6289 29.2702 34.1025 28.8379 33.377L25.3174 27.2812C22.4697 28.2025 19.4011 28.1842 16.5645 27.2295C13.7278 26.2747 11.2726 24.4342 9.56152 21.9785C8.20618 21.8424 6.8826 21.4831 5.64453 20.915C5.13434 21.24 4.67147 21.6339 4.26953 22.0859C3.47461 23.0527 1.77491 22.6248 1.58301 21.3809C1.32309 20.1309 1.30978 18.842 1.54395 17.5869C0.549256 16.2161 0.00956918 14.5677 0 12.874C0 7.81615 4.88047 3.70028 10.8799 3.7002C11.1011 3.7002 11.3204 3.70779 11.5381 3.71875C14.1157 1.32484 17.5047 -0.00388103 21.0225 0ZM28.541 31.2188L29.5498 32.9658C29.8669 33.515 30.3894 33.9159 31.002 34.0801C31.6144 34.2441 32.2673 34.1588 32.8164 33.8418C33.3654 33.5247 33.7655 33.002 33.9297 32.3896C34.0938 31.7772 34.0084 31.1244 33.6914 30.5752L32.6826 28.8281L28.541 31.2188ZM30.1934 24.5186C28.983 25.5744 27.5997 26.4136 26.1045 27L28.1299 30.5068L32.2715 28.1162L30.1934 24.5186ZM24.5205 1.30078C22.4867 0.74024 20.3475 0.676688 18.2842 1.11621C16.221 1.55576 14.2937 2.48551 12.665 3.82617C13.7877 3.98118 14.8838 4.29128 15.9209 4.74805C17.6235 3.80507 19.5536 3.35111 21.498 3.43652C23.4427 3.52199 25.326 4.14355 26.9395 5.23242C28.5528 6.32128 29.8338 7.8351 30.6406 9.60645C31.4474 11.3779 31.7484 13.3385 31.5107 15.2705C31.2731 17.2023 30.5059 19.0307 29.2939 20.5537C28.0819 22.0768 26.4728 23.2359 24.6436 23.9014C22.8143 24.5668 20.8361 24.7126 18.9287 24.3242C17.0214 23.9358 15.2583 23.0278 13.835 21.7002C12.7838 21.9525 11.7038 22.0668 10.623 22.04C11.8524 23.6268 13.4291 24.9115 15.2314 25.7949C17.0339 26.6784 19.0151 27.137 21.0225 27.1367C23.1319 27.1372 25.2105 26.6306 27.083 25.6592C28.9556 24.6876 30.5678 23.2797 31.7822 21.5547C32.9965 19.8297 33.7775 17.8375 34.0605 15.7471C34.3435 13.6566 34.1201 11.5287 33.4082 9.54297C32.6963 7.55718 31.5175 5.7714 29.9707 4.33691C28.4239 2.90239 26.5543 1.86132 24.5205 1.30078ZM21.9023 4.28809C20.1613 4.13152 18.41 4.44715 16.833 5.20117C19.7973 6.84146 21.7598 9.66773 21.7598 12.874C21.7596 16.7759 18.8566 20.1123 14.7773 21.4365C16.1166 22.5598 17.7339 23.3017 19.459 23.584C21.1841 23.8663 22.9535 23.6788 24.5811 23.041C26.2086 22.4033 27.634 21.3382 28.708 19.959C29.782 18.5799 30.4649 16.9372 30.6846 15.2031C30.9042 13.4689 30.6524 11.7069 29.9561 10.1035C29.2597 8.50036 28.1446 7.11404 26.7275 6.09082C25.3103 5.0675 23.6434 4.44467 21.9023 4.28809ZM10.8799 4.52246C5.33413 4.52255 0.822266 8.26926 0.822266 12.874C0.833746 14.4518 1.35583 15.9834 2.30957 17.2402C2.34909 17.2992 2.37483 17.3664 2.38574 17.4365C2.39664 17.5069 2.39197 17.5791 2.37207 17.6475C2.1359 18.8311 2.14261 20.0504 2.3916 21.2314C2.61089 21.9175 3.18882 21.9637 3.65234 21.543C4.15887 20.9745 4.74959 20.4871 5.40332 20.0967C5.46227 20.0608 5.52972 20.0404 5.59863 20.0371C5.66748 20.0339 5.73584 20.048 5.79785 20.0781C7.38348 20.8392 9.12107 21.2307 10.8799 21.2246C16.4256 21.2246 20.9373 17.4787 20.9375 12.874C20.9375 8.26921 16.4257 4.52246 10.8799 4.52246Z" fill="black"/>
<path d="M21.0225 0C23.7978 -0.00130488 26.511 0.824423 28.8154 2.37109C31.1196 3.91779 32.9108 6.11573 33.9609 8.68457C35.0111 11.2535 35.2729 14.0769 34.7119 16.7949C34.1509 19.513 32.7931 22.0031 30.8115 23.9463L34.4023 30.1641C34.8145 30.9011 34.9194 31.7708 34.6953 32.585C34.4713 33.3991 33.9362 34.0923 33.2051 34.5146C32.4738 34.937 31.6053 35.0546 30.7881 34.8418C29.9708 34.6289 29.2702 34.1025 28.8379 33.377L25.3174 27.2812C22.4697 28.2025 19.4011 28.1842 16.5645 27.2295C13.7278 26.2747 11.2726 24.4342 9.56152 21.9785C8.20618 21.8424 6.8826 21.4831 5.64453 20.915C5.13434 21.24 4.67147 21.6339 4.26953 22.0859C3.47461 23.0527 1.77491 22.6248 1.58301 21.3809C1.32309 20.1309 1.30978 18.842 1.54395 17.5869C0.549256 16.2161 0.00956918 14.5677 0 12.874C0 7.81615 4.88047 3.70028 10.8799 3.7002C11.1011 3.7002 11.3204 3.70779 11.5381 3.71875C14.1157 1.32484 17.5047 -0.00388103 21.0225 0ZM28.541 31.2188L29.5498 32.9658C29.8669 33.515 30.3894 33.9159 31.002 34.0801C31.6144 34.2441 32.2673 34.1588 32.8164 33.8418C33.3654 33.5247 33.7655 33.002 33.9297 32.3896C34.0938 31.7772 34.0084 31.1244 33.6914 30.5752L32.6826 28.8281L28.541 31.2188ZM30.1934 24.5186C28.983 25.5744 27.5997 26.4136 26.1045 27L28.1299 30.5068L32.2715 28.1162L30.1934 24.5186ZM24.5205 1.30078C22.4867 0.74024 20.3475 0.676688 18.2842 1.11621C16.221 1.55576 14.2937 2.48551 12.665 3.82617C13.7877 3.98118 14.8838 4.29128 15.9209 4.74805C17.6235 3.80507 19.5536 3.35111 21.498 3.43652C23.4427 3.52199 25.326 4.14355 26.9395 5.23242C28.5528 6.32128 29.8338 7.8351 30.6406 9.60645C31.4474 11.3779 31.7484 13.3385 31.5107 15.2705C31.2731 17.2023 30.5059 19.0307 29.2939 20.5537C28.0819 22.0768 26.4728 23.2359 24.6436 23.9014C22.8143 24.5668 20.8361 24.7126 18.9287 24.3242C17.0214 23.9358 15.2583 23.0278 13.835 21.7002C12.7838 21.9525 11.7038 22.0668 10.623 22.04C11.8524 23.6268 13.4291 24.9115 15.2314 25.7949C17.0339 26.6784 19.0151 27.137 21.0225 27.1367C23.1319 27.1372 25.2105 26.6306 27.083 25.6592C28.9556 24.6876 30.5678 23.2797 31.7822 21.5547C32.9965 19.8297 33.7775 17.8375 34.0605 15.7471C34.3435 13.6566 34.1201 11.5287 33.4082 9.54297C32.6963 7.55718 31.5175 5.7714 29.9707 4.33691C28.4239 2.90239 26.5543 1.86132 24.5205 1.30078ZM21.9023 4.28809C20.1613 4.13152 18.41 4.44715 16.833 5.20117C19.7973 6.84146 21.7598 9.66773 21.7598 12.874C21.7596 16.7759 18.8566 20.1123 14.7773 21.4365C16.1166 22.5598 17.7339 23.3017 19.459 23.584C21.1841 23.8663 22.9535 23.6788 24.5811 23.041C26.2086 22.4033 27.634 21.3382 28.708 19.959C29.782 18.5799 30.4649 16.9372 30.6846 15.2031C30.9042 13.4689 30.6524 11.7069 29.9561 10.1035C29.2597 8.50036 28.1446 7.11404 26.7275 6.09082C25.3103 5.0675 23.6434 4.44467 21.9023 4.28809ZM10.8799 4.52246C5.33413 4.52255 0.822266 8.26926 0.822266 12.874C0.833746 14.4518 1.35583 15.9834 2.30957 17.2402C2.34909 17.2992 2.37483 17.3664 2.38574 17.4365C2.39664 17.5069 2.39197 17.5791 2.37207 17.6475C2.1359 18.8311 2.14261 20.0504 2.3916 21.2314C2.61089 21.9175 3.18882 21.9637 3.65234 21.543C4.15887 20.9745 4.74959 20.4871 5.40332 20.0967C5.46227 20.0608 5.52972 20.0404 5.59863 20.0371C5.66748 20.0339 5.73584 20.048 5.79785 20.0781C7.38348 20.8392 9.12107 21.2307 10.8799 21.2246C16.4256 21.2246 20.9373 17.4787 20.9375 12.874C20.9375 8.26921 16.4257 4.52246 10.8799 4.52246Z" stroke="black"/>
<path d="M15.4027 9.86804C15.5117 9.86808 15.6167 9.91109 15.6937 9.98816C15.7708 10.0653 15.8138 10.1702 15.8138 10.2792C15.8138 10.3882 15.7708 10.4931 15.6937 10.5702C15.6167 10.6473 15.5117 10.6903 15.4027 10.6903H6.35681C6.24778 10.6903 6.1429 10.6473 6.0658 10.5702C5.98871 10.4931 5.94568 10.3882 5.94568 10.2792C5.94569 10.1701 5.9887 10.0653 6.0658 9.98816C6.1429 9.91106 6.24778 9.86805 6.35681 9.86804H15.4027Z" fill="black"/>
<path d="M15.4027 9.86804C15.5117 9.86808 15.6167 9.91109 15.6937 9.98816C15.7708 10.0653 15.8138 10.1702 15.8138 10.2792C15.8138 10.3882 15.7708 10.4931 15.6937 10.5702C15.6167 10.6473 15.5117 10.6903 15.4027 10.6903H6.35681C6.24778 10.6903 6.1429 10.6473 6.0658 10.5702C5.98871 10.4931 5.94568 10.3882 5.94568 10.2792C5.94569 10.1701 5.9887 10.0653 6.0658 9.98816C6.1429 9.91106 6.24778 9.86805 6.35681 9.86804H15.4027Z" stroke="black"/>
<path d="M15.4027 12.6092C15.5117 12.6092 15.6167 12.6522 15.6937 12.7293C15.7708 12.8064 15.8138 12.9113 15.8138 13.0203C15.8138 13.1293 15.7708 13.2342 15.6937 13.3113C15.6167 13.3884 15.5117 13.4314 15.4027 13.4315H6.35681C6.24778 13.4314 6.1429 13.3884 6.0658 13.3113C5.98871 13.2342 5.94568 13.1294 5.94568 13.0203C5.94569 12.9113 5.9887 12.8064 6.0658 12.7293C6.1429 12.6522 6.24778 12.6092 6.35681 12.6092H15.4027Z" fill="black"/>
<path d="M15.4027 12.6092C15.5117 12.6092 15.6167 12.6522 15.6937 12.7293C15.7708 12.8064 15.8138 12.9113 15.8138 13.0203C15.8138 13.1293 15.7708 13.2342 15.6937 13.3113C15.6167 13.3884 15.5117 13.4314 15.4027 13.4315H6.35681C6.24778 13.4314 6.1429 13.3884 6.0658 13.3113C5.98871 13.2342 5.94568 13.1294 5.94568 13.0203C5.94569 12.9113 5.9887 12.8064 6.0658 12.7293C6.1429 12.6522 6.24778 12.6092 6.35681 12.6092H15.4027Z" stroke="black"/>
<path d="M15.4027 15.3503C15.5117 15.3503 15.6167 15.3933 15.6937 15.4704C15.7708 15.5475 15.8138 15.6524 15.8138 15.7614C15.8138 15.8704 15.7708 15.9753 15.6937 16.0524C15.6167 16.1295 15.5117 16.1725 15.4027 16.1725H6.35681C6.24778 16.1725 6.1429 16.1295 6.0658 16.0524C5.98871 15.9753 5.94568 15.8704 5.94568 15.7614C5.94569 15.6524 5.9887 15.5475 6.0658 15.4704C6.1429 15.3933 6.24778 15.3503 6.35681 15.3503H15.4027Z" fill="black"/>
<path d="M15.4027 15.3503C15.5117 15.3503 15.6167 15.3933 15.6937 15.4704C15.7708 15.5475 15.8138 15.6524 15.8138 15.7614C15.8138 15.8704 15.7708 15.9753 15.6937 16.0524C15.6167 16.1295 15.5117 16.1725 15.4027 16.1725H6.35681C6.24778 16.1725 6.1429 16.1295 6.0658 16.0524C5.98871 15.9753 5.94568 15.8704 5.94568 15.7614C5.94569 15.6524 5.9887 15.5475 6.0658 15.4704C6.1429 15.3933 6.24778 15.3503 6.35681 15.3503H15.4027Z" stroke="black"/>
</svg>