<svg xmlns="http://www.w3.org/2000/svg" width="53" height="40" viewBox="0 0 53 40" fill="none">
<g clip-path="url(#clip0_1_1172)">
<path d="M26.5001 6.42113C28.4989 6.42113 30.3095 7.21342 31.6175 8.4928C32.9275 9.77224 33.7386 11.5406 33.7386 13.4928C33.7386 15.445 32.9274 17.2134 31.6175 18.4909C31.1338 18.9633 30.5824 19.3678 29.9782 19.6931C31.5084 20.1876 32.7919 21.0057 33.8139 22.0737C33.9683 22.2336 34.1151 22.4009 34.2562 22.5718C34.9018 21.6251 35.7563 20.8255 36.7538 20.2354C37.1095 20.024 37.484 19.8402 37.8736 19.6858C37.5028 19.4597 37.1622 19.1931 36.8554 18.8935C35.8146 17.8769 35.169 16.4707 35.169 14.9211C35.169 13.3714 35.8146 11.9671 36.8535 10.9505C37.8981 9.9321 39.336 9.3016 40.9226 9.3016C42.5111 9.3016 43.9509 9.93026 44.9917 10.9468C46.0325 11.9634 46.6762 13.3696 46.6762 14.9211C46.6762 16.4707 46.0307 17.8751 44.9917 18.8917C44.6755 19.2005 44.3236 19.4726 43.9415 19.7024C44.9296 20.0829 45.8198 20.6399 46.5651 21.3421C48.0087 22.706 48.9027 24.6049 48.9027 26.8V27.5628C48.9027 28.2963 48.5959 28.9636 48.1028 29.447C47.6097 29.9286 46.9246 30.2283 46.1737 30.2283H36.6014C36.5148 30.9764 36.1647 31.6492 35.6471 32.1566C35.0957 32.6474 34.5217 32.9673 33.8253 33.0721V31.6254C34.117 31.5427 34.3805 31.3919 34.5932 31.1915C34.9659 30.8092 35.1766 30.4048 35.1766 29.8643C35.1766 27.0923 34.3447 24.6916 32.7582 23.0314C31.2788 21.4836 29.1182 20.5608 26.3384 20.5608C23.7072 20.5608 21.6482 21.5186 20.2237 23.0626C18.6502 24.7685 17.8221 27.1987 17.8221 29.8659C17.8221 30.3696 18.0329 30.8274 18.3735 31.1601C18.7123 31.4928 19.181 31.6987 19.6985 31.6987H29.7676V33.1104H19.6985C18.7857 33.1104 17.9557 32.7446 17.3534 32.1564C16.834 31.6509 16.482 30.9781 16.3973 30.2299H6.82501C6.07405 30.2299 5.39083 29.9303 4.89586 29.4486C4.40277 28.967 4.09595 28.2979 4.09595 27.5644V26.8016C4.09595 24.6931 4.98052 22.774 6.40154 21.3842C7.14499 20.658 8.0352 20.0754 9.02519 19.6838C8.6563 19.4577 8.31749 19.193 8.01072 18.8933C6.96802 17.8731 6.32248 16.4687 6.32248 14.9191C6.32248 13.3676 6.96614 11.9613 8.00696 10.9448C9.04779 9.92825 10.4876 9.29959 12.0761 9.29959C13.6627 9.29959 15.1006 9.93008 16.1414 10.9448C17.1841 11.965 17.8296 13.3694 17.8296 14.9191C17.8296 16.4706 17.1841 17.8749 16.1433 18.8915C15.8346 19.193 15.4883 19.4613 15.1138 19.6893C15.477 19.8272 15.8271 19.9908 16.1621 20.1783C17.1879 20.7537 18.0724 21.557 18.7538 22.5735C18.8799 22.4172 19.0135 22.2646 19.149 22.1157C20.1654 21.0147 21.4452 20.1654 22.9697 19.6617C22.3844 19.3419 21.8498 18.9448 21.3793 18.4853C20.0693 17.2058 19.2582 15.4374 19.2582 13.4871C19.2582 11.5349 20.0694 9.76657 21.3793 8.48714C22.6892 7.2077 24.4998 6.41547 26.4967 6.41547L26.5001 6.42113ZM32.3797 33.1105H31.2128V31.6988H32.3797V33.1105ZM16.4176 28.8183C16.555 27.015 17.0462 25.3256 17.8706 23.879L17.8348 23.8201C17.2551 22.7687 16.4289 21.958 15.4464 21.4065C14.4301 20.8367 13.2331 20.5426 11.9514 20.5426C10.1878 20.5426 8.58428 21.2466 7.42305 22.3808C6.26182 23.515 5.54097 25.0812 5.54097 26.8036V27.5665C5.54097 27.9102 5.68589 28.2245 5.91739 28.4525C6.14889 28.6786 6.47259 28.8201 6.82456 28.8201H16.4156L16.4176 28.8183ZM15.1246 11.9467C14.3454 11.1857 13.2669 10.7151 12.0775 10.7151C10.888 10.7151 9.80955 11.1857 9.03036 11.9467C8.25116 12.7078 7.76934 13.7611 7.76934 14.9228C7.76934 16.0865 8.25116 17.1379 9.03036 17.8989C9.80955 18.66 10.888 19.1305 12.0775 19.1305C13.2669 19.1305 14.3435 18.6581 15.1227 17.8971C15.9019 17.1361 16.3856 16.0827 16.3856 14.9228C16.3856 13.7592 15.9038 12.7078 15.1246 11.9467ZM35.1485 23.8601C35.9691 25.2866 36.4546 26.9705 36.5883 28.8178H46.1774C46.5294 28.8178 46.8512 28.6763 47.0846 28.4501C47.3161 28.224 47.461 27.9079 47.461 27.5641V26.8013C47.461 25.009 46.7383 23.463 45.5695 22.3601C44.3612 21.2204 42.6692 20.5421 40.8021 20.5421C39.5976 20.5421 38.4664 20.8711 37.5028 21.441C36.5128 22.0237 35.698 22.862 35.1485 23.8601ZM43.9734 11.9467C43.1943 11.1857 42.1158 10.7151 40.9263 10.7151C39.7349 10.7151 38.6584 11.1857 37.8792 11.9467C37.1 12.7078 36.6182 13.7611 36.6182 14.9228C36.6182 16.0846 37.1019 17.1361 37.8811 17.8971C38.6603 18.6581 39.7388 19.1305 40.9263 19.1305C42.1177 19.1305 43.1943 18.66 43.9734 17.8989C44.7526 17.1379 45.2345 16.0846 45.2345 14.9228C45.2345 13.7611 44.7526 12.7078 43.9734 11.9467ZM30.5991 9.49083C29.5508 8.46692 28.1035 7.83276 26.5037 7.83276C24.9039 7.83276 23.4566 8.46697 22.4082 9.49083C21.3599 10.5147 20.7106 11.9302 20.7106 13.4927C20.7106 15.0552 21.3599 16.4688 22.4082 17.4927C23.4566 18.5166 24.9039 19.1507 26.5037 19.1507C28.1035 19.1507 29.5508 18.5165 30.5991 17.4927C31.6475 16.4688 32.2968 15.0533 32.2968 13.4927C32.2968 11.9302 31.6474 10.5147 30.5991 9.49083Z" fill="black"/>
</g>
<defs>
<clipPath id="clip0_1_1172">
<rect width="53" height="40" fill="white"/>
</clipPath>
</defs>
</svg>