<svg xmlns="http://www.w3.org/2000/svg" width="40" height="40" viewBox="0 0 40 40" fill="none">
<circle cx="20" cy="20" r="19.5" fill="#E8505E" stroke="white"/>
<path d="M15.4323 15.105H11.6096C11.44 15.105 11.3025 15.2426 11.3025 15.4122V27.6928C11.3025 27.8625 11.44 28 11.6096 28H15.4323C15.602 28 15.7394 27.8625 15.7394 27.6928V15.4122C15.7394 15.2426 15.602 15.105 15.4323 15.105Z" fill="white"/>
<path d="M13.5225 9C12.1316 9 11 10.1304 11 11.5197C11 12.9097 12.1316 14.0405 13.5225 14.0405C14.9123 14.0405 16.043 12.9097 16.043 11.5197C16.043 10.1304 14.9123 9 13.5225 9Z" fill="white"/>
<path d="M25.1551 14.7997C23.6197 14.7997 22.4848 15.4597 21.7964 16.2096V15.412C21.7964 15.2424 21.6589 15.1049 21.4893 15.1049H17.8284C17.6587 15.1049 17.5212 15.2424 17.5212 15.412V27.6927C17.5212 27.8623 17.6587 27.9998 17.8284 27.9998H21.6427C21.8124 27.9998 21.9498 27.8623 21.9498 27.6927V21.6166C21.9498 19.5691 22.506 18.7714 23.9333 18.7714C25.4877 18.7714 25.6112 20.0502 25.6112 21.7219V27.6927C25.6112 27.8624 25.7487 27.9999 25.9183 27.9999H29.7341C29.9037 27.9999 30.0412 27.8624 30.0412 27.6927V20.9566C30.0412 17.912 29.4607 14.7997 25.1551 14.7997Z" fill="white"/>
</svg>