<svg xmlns="http://www.w3.org/2000/svg" width="160" height="20" viewBox="0 0 160 20" fill="none">
<path d="M139.903 3.99002C140.696 3.99002 141.338 3.34724 141.338 2.55434C141.338 1.76143 140.696 1.11865 139.903 1.11865C139.11 1.11865 138.467 1.76143 138.467 2.55434C138.467 3.34724 139.11 3.99002 139.903 3.99002Z" fill="white"/>
<path d="M35.2324 0.00976562V1.91848H31.4046V14.35H29.4959V1.91848H25.6681V0.00976562H35.2324Z" fill="white"/>
<path d="M45.8439 14.35H43.9352V9.572C43.9352 8.7525 43.6614 8.06785 43.1157 7.52221C42.5701 6.97656 41.8875 6.7027 41.0659 6.7027C40.2444 6.7027 39.5535 6.97449 39.0079 7.51805C38.4622 8.06162 38.1884 8.74627 38.1884 9.572V14.35H36.2796V0.00976562H38.1884V5.74628C39.039 5.10727 39.9975 4.78777 41.0659 4.78777C42.4228 4.78777 43.5576 5.24628 44.4726 6.16329C45.3854 7.0803 45.8439 8.21723 45.8439 9.57407V14.3521V14.35Z" fill="white"/>
<path d="M55.0877 6.09109C56.0005 7.00811 56.459 8.14503 56.459 9.50188C56.459 10.8587 56.0005 11.9874 55.0835 12.9044C54.1665 13.8214 53.0317 14.2799 51.681 14.2799C50.3304 14.2799 49.1935 13.8214 48.2744 12.9044C47.3553 11.9874 46.8947 10.8546 46.8947 9.50188C46.8947 8.14918 47.3532 7.00811 48.2702 6.09109C49.1873 5.17408 50.3242 4.71558 51.681 4.71558C53.0379 4.71558 54.1727 5.17408 55.0877 6.09109ZM49.6229 7.45209C49.0773 7.99773 48.8034 8.68238 48.8034 9.50811C48.8034 10.3338 49.0773 11.0081 49.6271 11.5537C50.1769 12.0994 50.8595 12.3712 51.681 12.3712C52.5026 12.3712 53.1852 12.0994 53.7308 11.5537C54.2765 11.0081 54.5503 10.3276 54.5503 9.50811C54.5503 8.68861 54.2765 8.00603 53.7308 7.45832C53.1852 6.9106 52.5026 6.63674 51.681 6.63674C50.8595 6.63674 50.1686 6.90852 49.6229 7.45416V7.45209Z" fill="white"/>
<path d="M67.0704 4.78784V9.57414C67.0704 10.9248 66.6119 12.0596 65.6949 12.9766C64.7778 13.8936 63.643 14.3521 62.2924 14.3521C60.9418 14.3521 59.7986 13.8957 58.8816 12.9808C57.9646 12.0658 57.5061 10.931 57.5061 9.57414V4.78784H59.4148V9.57414C59.4148 10.3936 59.6886 11.0783 60.2384 11.6239C60.7882 12.1696 61.4708 12.4434 62.2924 12.4434C63.1139 12.4434 63.7965 12.1696 64.3422 11.6239C64.8878 11.0783 65.1617 10.3957 65.1617 9.57414V4.78784H67.0704Z" fill="white"/>
<path d="M76.3139 6.16336C77.2267 7.08037 77.6853 8.2173 77.6853 9.57414V14.3521C77.6853 15.7028 77.2268 16.8397 76.3097 17.7588C75.3927 18.6779 74.2579 19.1384 72.9073 19.1384C71.9114 19.1384 71.0172 18.8708 70.2205 18.3335C69.4239 17.7961 68.8388 17.0658 68.4654 16.1447L70.3015 15.5575C70.8077 16.6675 71.677 17.2214 72.9073 17.2214C73.7268 17.2214 74.4114 16.9476 74.957 16.4019C75.5027 15.8563 75.7766 15.1737 75.7766 14.3521V13.4019C74.9259 14.0347 73.9695 14.3521 72.9093 14.3521C71.5525 14.3521 70.4156 13.8957 69.4985 12.9808C68.5815 12.0658 68.123 10.931 68.123 9.57414C68.123 8.2173 68.5815 7.08037 69.4985 6.16336C70.4156 5.24635 71.5525 4.78784 72.9093 4.78784C74.2662 4.78784 75.401 5.24635 76.316 6.16336H76.3139ZM70.8533 7.52435C70.3035 8.07 70.0297 8.75257 70.0297 9.57414C70.0297 10.3957 70.3035 11.0783 70.8533 11.6239C71.4031 12.1696 72.0857 12.4434 72.9073 12.4434C73.7288 12.4434 74.4114 12.1696 74.957 11.6239C75.5027 11.0783 75.7766 10.3957 75.7766 9.57414C75.7766 8.75257 75.5027 8.07 74.957 7.52435C74.4114 6.97871 73.7288 6.70485 72.9073 6.70485C72.0857 6.70485 71.4031 6.97871 70.8533 7.52435Z" fill="white"/>
<path d="M88.2968 14.35H86.3881V9.572C86.3881 8.7525 86.1142 8.06785 85.5686 7.52221C85.0229 6.97656 84.3404 6.7027 83.5188 6.7027C82.6972 6.7027 82.0063 6.97449 81.4607 7.51805C80.9151 8.06162 80.6412 8.74627 80.6412 9.572V14.35H78.7325V0.00976562H80.6412V5.74628C81.4918 5.10727 82.4503 4.78777 83.5188 4.78777C84.8756 4.78777 86.0105 5.24628 86.9254 6.16329C87.8383 7.0803 88.2968 8.21723 88.2968 9.57407V14.3521V14.35Z" fill="white"/>
<path d="M94.1301 4.3084V6.22748H91.2526V14.3519H89.3438V0.0117188H91.2526V4.3084H94.1301Z" fill="white"/>
<path d="M114.564 0.00976562V14.35H112.645V3.22138L108.474 10.0512H107.389V10.0429L106.665 10.0346L102.603 3.35831V14.3521H100.694V0.0118423H102.811L107.589 7.8832L112.375 0.0118423H114.564V0.00976562Z" fill="white"/>
<path d="M118.745 11.9206C119.239 12.2692 119.791 12.4434 120.401 12.4434H124.698V14.3791H120.374V14.3521C119.023 14.3459 117.893 13.8853 116.982 12.9725C116.071 12.0596 115.617 10.9268 115.617 9.57414C115.617 8.22145 116.075 7.08037 116.992 6.16336C117.909 5.24635 119.046 4.78784 120.403 4.78784C121.567 4.78784 122.581 5.14054 123.442 5.848C124.305 6.55547 124.851 7.47871 125.079 8.62186L123.884 10.543H117.695C117.901 11.1136 118.249 11.5721 118.745 11.9206ZM118.745 7.22766C118.251 7.57621 117.901 8.03472 117.695 8.60526H123.098C122.893 8.02849 122.546 7.56792 122.059 7.22352C121.571 6.87912 121.019 6.70485 120.403 6.70485C119.787 6.70485 119.241 6.87911 118.747 7.22766H118.745Z" fill="white"/>
<path d="M130.913 4.3084V6.22748H128.036V14.3519H126.127V0.0117188H128.036V4.3084H130.913Z" fill="white"/>
<path d="M138.586 5.15956C138.586 5.31724 138.447 5.58487 138.169 5.96454C137.891 6.34421 137.698 6.60769 137.59 6.75084C137.324 6.66578 137.04 6.62429 136.739 6.62429C135.913 6.62429 135.227 6.89815 134.681 7.44379C134.135 7.98944 133.861 8.67615 133.861 9.50188V14.2799H131.953V9.50188C131.953 8.14503 132.411 7.00811 133.328 6.09109C134.245 5.17408 135.382 4.71558 136.739 4.71558C137.366 4.71558 137.955 4.82139 138.503 5.03301C138.556 5.05168 138.583 5.09317 138.583 5.15956H138.586Z" fill="white"/>
<path d="M140.857 4.71558V14.2799H138.948V4.71558C139.55 5.00811 140.256 5.00811 140.857 4.71558Z" fill="white"/>
<path d="M148.908 11.3914L150.265 12.7483C149.313 13.8168 148.12 14.3499 146.691 14.3499C145.261 14.3499 144.197 13.8935 143.28 12.9786C142.363 12.0636 141.904 10.9288 141.904 9.57195C141.904 8.2151 142.363 7.07817 143.28 6.16116C144.197 5.24415 145.334 4.78564 146.691 4.78564C148.168 4.78564 149.388 5.35618 150.346 6.49518L148.979 7.85202C148.406 7.08646 147.643 6.70265 146.691 6.70265C145.871 6.70265 145.186 6.97651 144.637 7.52216C144.087 8.0678 143.813 8.75037 143.813 9.57195C143.813 10.3935 144.087 11.0761 144.637 11.6217C145.184 12.1674 145.871 12.4412 146.691 12.4412C147.595 12.4412 148.334 12.0906 148.908 11.3914Z" fill="white"/>
<path d="M158.472 9.27539C159.49 9.81896 160.001 10.5534 160.001 11.4766C160.001 12.3999 159.49 13.1343 158.472 13.6779C157.634 14.1239 156.71 14.348 155.704 14.348C154.698 14.348 153.775 14.1239 152.934 13.6779C151.91 13.1343 151.397 12.4019 151.397 11.4787H153.306C153.306 11.8169 153.64 12.0762 154.31 12.2567C154.756 12.377 155.221 12.4372 155.704 12.4372C156.976 12.4372 157.613 12.1198 157.613 11.4828C157.613 10.8459 156.976 10.5368 155.704 10.5368C154.696 10.5368 153.775 10.3127 152.934 9.86667C151.91 9.31688 151.397 8.58037 151.397 7.65506C151.397 6.72975 151.91 5.99738 152.934 5.45381C153.779 5.00775 154.702 4.78369 155.704 4.78369C156.706 4.78369 157.634 5.00775 158.472 5.45381C159.49 5.99738 160.001 6.72975 160.001 7.65299H158.092C158.092 7.32104 157.758 7.06584 157.088 6.88327C156.642 6.76294 156.179 6.70278 155.704 6.70278C154.426 6.70278 153.785 7.01813 153.785 7.64883C153.785 8.27954 154.424 8.60318 155.704 8.60318C156.71 8.60318 157.634 8.82726 158.472 9.27331V9.27539Z" fill="white"/>
<path d="M15.4731 0H1.06441V3.13278H15.4731V0Z" fill="white"/>
<path d="M14.4087 3.75293H0V6.88571H14.4087V3.75293Z" fill="white"/>
<path d="M14.4087 11.2202H0V14.353H14.4087V11.2202Z" fill="white"/>
<path d="M15.4796 7.47144H1.07095V10.6042H15.4796V7.47144Z" fill="white"/>
</svg>