<svg xmlns="http://www.w3.org/2000/svg" width="282" height="295" viewBox="0 0 282 295" fill="none">
<path d="M122.166 0C121.782 0 121.416 0.153933 121.127 0.423322C120.858 0.692706 120.704 1.07754 120.704 1.4624V263C120.704 263.384 120.858 263.75 121.127 264.039C121.416 264.308 121.781 264.462 122.166 264.462H209.029V292.844C209.029 293.344 209.28 293.806 209.684 294.075C210.107 294.364 210.627 294.402 211.089 294.21L280.416 264.442H280.396C280.935 264.212 281.282 263.692 281.282 263.095V1.57806C281.282 1.53958 281.282 1.50111 281.262 1.46262C281.262 1.07778 281.108 0.692937 280.839 0.423538C280.57 0.154149 280.185 0.000216096 279.8 0.000216096L122.166 0ZM123.61 2.92477H272.931L209.916 29.9789H209.935C209.396 30.2098 209.031 30.7294 209.031 31.3066V261.535H123.612L123.61 2.92477ZM278.336 3.79064V262.151L211.971 290.628V32.2881L278.336 3.79064ZM40.211 34.9624C22.4265 34.9624 7.95261 49.2205 7.95261 66.8075C7.95261 84.3754 22.4265 98.6334 40.211 98.6334C57.9955 98.6334 72.4693 84.3754 72.4693 66.8075C72.4693 49.2397 57.9955 34.9624 40.211 34.9624ZM40.211 37.8872C56.4365 37.8872 69.5435 50.8177 69.5435 66.8078C69.5435 82.7786 56.4557 95.7284 40.211 95.7284C23.9855 95.7284 10.8592 82.7978 10.8592 66.8078C10.8592 50.8369 23.9667 37.8872 40.211 37.8872ZM28.9709 107.599C13.4386 107.599 0.8125 120.048 0.8125 135.403V262.995H0.831747C0.831747 263.803 1.48614 264.457 2.29456 264.457C2.6795 264.457 3.04518 264.303 3.33392 264.034C3.60337 263.745 3.75735 263.379 3.75735 262.995V135.403C3.75735 121.664 15.0364 110.523 28.9904 110.523H51.4327C65.4059 110.523 76.6657 121.664 76.6657 135.403V262.995H76.685C76.685 263.379 76.8389 263.745 77.1084 264.034C77.3779 264.303 77.7628 264.457 78.1478 264.457C78.9561 264.457 79.6106 263.803 79.5913 262.995V135.403C79.5913 120.067 66.9652 107.599 51.4329 107.599H28.9709ZM29.0286 145.794C28.6437 145.794 28.2587 145.948 27.9893 146.237C27.7006 146.506 27.5466 146.891 27.5658 147.276V215.815C27.5658 216.623 28.2202 217.277 29.0286 217.258C29.837 217.277 30.4915 216.623 30.4915 215.815V147.276C30.4915 146.891 30.3375 146.506 30.068 146.237C29.7985 145.948 29.4136 145.794 29.0286 145.794ZM55.8783 209.56C55.4741 209.56 55.1084 209.694 54.839 209.983C54.5502 210.252 54.3963 210.618 54.3963 211.003V262.996C54.3963 263.381 54.5502 263.746 54.8197 264.035C55.1084 264.304 55.4741 264.458 55.8783 264.458C56.2632 264.458 56.6289 264.304 56.9176 264.035C57.1871 263.746 57.3411 263.381 57.3411 262.996V211.003C57.3411 210.618 57.1871 210.252 56.8984 209.983C56.6289 209.694 56.2632 209.56 55.8783 209.56Z" fill="url(#paint0_linear_1_1234)"/>
<defs>
<linearGradient id="paint0_linear_1_1234" x1="-87.9326" y1="233.106" x2="394.067" y2="229.606" gradientUnits="userSpaceOnUse">
<stop stop-color="#AA85F0"/>
<stop offset="1" stop-color="white"/>
</linearGradient>
</defs>
</svg>