<svg xmlns="http://www.w3.org/2000/svg" width="111" height="75" viewBox="0 0 111 75" fill="none">
<path d="M110.246 45.1607C110.198 45.0635 110.134 44.9614 110.062 44.8739C110.047 44.8593 110.037 44.835 110.013 44.8107C109.925 44.7232 109.828 44.66 109.726 44.5968L92.1288 35.6718V19.1095C92.1288 18.9588 92.0899 18.8227 92.0412 18.7012C92.0266 18.6623 92.0169 18.6283 91.9926 18.6039C91.9439 18.5067 91.8807 18.4046 91.8077 18.3171C91.7931 18.3026 91.7834 18.2782 91.7591 18.2539C91.6715 18.1664 91.5742 18.1033 91.472 18.04L56.1522 0.131245C55.8019 -0.0437484 55.3932 -0.0437484 55.0429 0.131245L19.7231 18.04C19.6112 18.0887 19.5236 18.1664 19.4361 18.2539C19.4215 18.2685 19.4117 18.2928 19.3874 18.3171C19.3144 18.4046 19.2512 18.4921 19.2025 18.6039C19.1879 18.6428 19.1636 18.6769 19.1539 18.7012C19.1052 18.8373 19.0663 18.9734 19.0663 19.1095V35.6718L1.46929 44.5968C1.35739 44.6454 1.26981 44.7232 1.18225 44.8107C1.16765 44.8253 1.15792 44.8496 1.1336 44.8739C1.06062 44.9614 0.997368 45.0489 0.94872 45.1607C0.934126 45.1996 0.9098 45.2336 0.90007 45.258C0.85142 45.3941 0.8125 45.5302 0.8125 45.6663V64.1973C0.8125 64.6445 1.07522 65.0674 1.47415 65.2668L19.7475 74.5272H19.7864C19.9469 74.6001 20.1221 74.6535 20.3118 74.6535C20.4967 74.6535 20.6718 74.6049 20.8372 74.5272H20.8762L38.5853 65.5438L55.0726 73.9049H55.1212C55.2477 73.9681 55.3937 73.9924 55.5445 74.0022C55.5688 74.0022 55.6077 74.0265 55.6321 74.0265C55.6564 74.0265 55.6953 74.0022 55.7196 74.0022C55.8705 74.0022 56.0067 73.9633 56.1429 73.9049H56.1915L72.6789 65.5438L90.388 74.5272H90.4269C90.5875 74.6001 90.7626 74.6535 90.9523 74.6535C91.1372 74.6535 91.3124 74.6049 91.4778 74.5272H91.5167L109.79 65.2668C110.199 65.0529 110.452 64.6445 110.452 64.1973V45.6663C110.452 45.5156 110.413 45.3795 110.364 45.258C110.349 45.2191 110.34 45.185 110.315 45.1607H110.246ZM19.0555 71.5031L3.22449 63.4775V47.6494L19.0555 55.6896V71.5077V71.5031ZM20.2766 53.5943L4.6835 45.6804L20.2766 37.7762L35.8697 45.6804L20.2766 53.5943ZM37.3281 63.477L21.4971 71.5026V55.6845L37.3281 47.6443V63.477ZM54.3796 70.895L39.7704 63.477V45.6802C39.7704 45.5295 39.7315 45.3934 39.6829 45.2718C39.6683 45.2329 39.6586 45.1989 39.6342 45.1746C39.5856 45.0774 39.5223 44.9753 39.4493 44.8878C39.4348 44.8732 39.425 44.8489 39.4007 44.8246C39.3131 44.7371 39.2158 44.6739 39.1137 44.6107L21.5166 35.6857V21.102L54.3941 37.7751V70.9035L54.3796 70.895ZM55.6008 35.6909L22.9562 19.1385L55.6008 2.58617L88.2454 19.1385L55.6008 35.6909ZM72.0881 44.6159C71.9762 44.6645 71.8886 44.7423 71.801 44.8298C71.7864 44.8444 71.7767 44.8687 71.7524 44.893C71.6794 44.9805 71.6162 45.068 71.5675 45.1798C71.5529 45.2187 71.5286 45.2527 71.5189 45.277C71.4702 45.4131 71.4313 45.5493 71.4313 45.6854V63.4822L56.8221 70.9002V37.7718L89.6996 21.0987V35.6824L72.1026 44.6074L72.0881 44.6159ZM89.6851 71.5071L73.8541 63.4814V47.6534L89.6851 55.6936V71.5117V71.5071ZM90.9062 53.5983L75.3131 45.6844L90.9062 37.7802L106.499 45.6844L90.9062 53.5983ZM107.958 63.4809L92.1268 71.5066V55.6885L107.958 47.6483V63.4809Z" fill="url(#paint0_linear_1_1236)"/>
<defs>
<linearGradient id="paint0_linear_1_1236" x1="-24.1875" y1="-95" x2="185.812" y2="85" gradientUnits="userSpaceOnUse">
<stop stop-color="#E8505E"/>
<stop offset="1" stop-color="white"/>
</linearGradient>
</defs>
</svg>