<svg xmlns="http://www.w3.org/2000/svg" width="175" height="349" viewBox="0 0 175 349" fill="none">
<path d="M0.8125 174.5C0.8125 270.878 78.7104 349 174.812 349V337.367C85.2682 337.367 12.4125 264.302 12.4125 174.5C12.4125 84.6945 85.2682 11.6333 174.813 11.6333V0C78.7104 0 0.8125 78.1217 0.8125 174.5ZM145.812 174.5C145.812 190.562 158.793 203.583 174.812 203.583V191.95C165.219 191.95 157.416 184.121 157.416 174.5C157.416 164.879 165.219 157.05 174.812 157.05V145.417C158.793 145.417 145.812 158.434 145.812 174.5ZM29.8125 174.5C29.8125 254.813 94.73 319.917 174.809 319.917H174.812V308.283H174.809C101.257 308.283 41.4125 248.263 41.4125 174.5C41.4125 100.737 101.257 40.7167 174.809 40.7167H174.813V29.0833H174.809C94.73 29.0833 29.8125 94.1873 29.8125 174.5ZM58.8125 174.5C58.8125 238.747 110.75 290.833 174.812 290.833V279.2C117.246 279.2 70.4125 232.232 70.4125 174.5C70.4125 116.768 117.246 69.8 174.812 69.8V58.1667C110.75 58.1667 58.8125 110.245 58.8125 174.5ZM87.8125 174.5C87.8125 222.685 126.761 261.75 174.812 261.75V250.117C133.234 250.117 99.4125 216.198 99.4125 174.5C99.4125 132.802 133.234 98.8795 174.812 98.8795V87.25C126.761 87.25 87.8125 126.307 87.8125 174.5ZM116.812 174.5C116.812 206.624 142.777 232.667 174.812 232.667V221.029C149.231 221.029 128.416 200.159 128.416 174.5C128.416 148.845 149.231 127.971 174.812 127.971V116.333C142.777 116.333 116.812 142.373 116.812 174.5Z" fill="url(#paint0_linear_1_1235)"/>
<defs>
<linearGradient id="paint0_linear_1_1235" x1="0.812526" y1="174" x2="230.313" y2="174" gradientUnits="userSpaceOnUse">
<stop stop-color="#E3E3E3"/>
<stop offset="1" stop-color="white"/>
</linearGradient>
</defs>
</svg>