<svg xmlns="http://www.w3.org/2000/svg" width="40" height="40" viewBox="0 0 40 40" fill="none">
<circle cx="20" cy="20" r="19.5" fill="#E8505E" stroke="white"/>
<path fill-rule="evenodd" clip-rule="evenodd" d="M29.9106 15.3702C30.0673 14.4909 30.0638 13.5868 29.5207 12.9031C28.763 11.9443 27.1503 11.9091 26.0455 12.0783C25.1467 12.2157 22.1067 13.5569 21.0722 16.768C22.9049 16.6287 23.8655 16.9001 23.6892 18.9179C23.6153 19.7622 23.1888 20.6871 22.7129 21.5738C22.1629 22.596 21.1321 24.6031 19.7803 23.1563C18.5627 21.8542 18.6541 19.3638 18.3757 17.7053C18.2207 16.7749 18.0567 15.6154 17.7519 14.6583C17.4892 13.8353 16.8868 12.8431 16.15 12.628C15.3587 12.3955 14.3804 12.7584 13.8059 13.0969C11.9765 14.1719 10.5824 15.7015 9 16.9634C9.2576 17.5153 9.39809 17.8729 9.85981 17.9398C10.9491 18.1003 11.9872 16.9247 12.7113 18.1478C13.1519 18.8951 13.2895 19.7145 13.5714 20.5202C13.9485 21.5931 14.2393 22.7616 14.5477 23.9954C15.0694 26.0854 15.711 29.2083 17.5174 29.9733C18.439 30.3646 19.8244 29.841 20.5258 29.4251C22.4256 28.3008 23.906 26.6707 25.1732 25.0123C28.0704 21.0873 29.6689 16.6409 29.9106 15.3702Z" fill="white"/>
</svg>